<svg width="24" height="24" viewBox="0 0 24 24" fill="none" xmlns="http://www.w3.org/2000/svg">
<path d="M3.75 6H20.1014C20.2113 6 20.3198 6.02413 20.4193 6.07068C20.5188 6.11724 20.6068 6.18508 20.6772 6.26941C20.7476 6.35374 20.7986 6.45251 20.8266 6.55872C20.8546 6.66494 20.859 6.77601 20.8393 6.88409L19.2039 15.8841C19.1725 16.0569 19.0814 16.2132 18.9466 16.3258C18.8117 16.4383 18.6417 16.5 18.466 16.5H6.29237C6.11679 16.5 5.94678 16.4384 5.81195 16.3259C5.67713 16.2135 5.58603 16.0573 5.55453 15.8845L3.18041 2.86545C3.14892 2.69273 3.05782 2.53652 2.92299 2.42406C2.78817 2.3116 2.61816 2.25 2.44258 2.25H0.75" stroke="#121416" stroke-width="1.5" stroke-miterlimit="10" stroke-linecap="round" stroke-linejoin="round"/>
<path d="M6.75 21.75C7.57843 21.75 8.25 21.0784 8.25 20.25C8.25 19.4216 7.57843 18.75 6.75 18.75C5.92157 18.75 5.25 19.4216 5.25 20.25C5.25 21.0784 5.92157 21.75 6.75 21.75Z" fill="#121416"/>
<path d="M18 21.75C18.8284 21.75 19.5 21.0784 19.5 20.25C19.5 19.4216 18.8284 18.75 18 18.75C17.1716 18.75 16.5 19.4216 16.5 20.25C16.5 21.0784 17.1716 21.75 18 21.75Z" fill="#121416"/>
</svg>
