<svg width="49" height="48" viewBox="0 0 49 48" fill="none" xmlns="http://www.w3.org/2000/svg">
<g clip-path="url(#clip0_23_3507)">
<path fill-rule="evenodd" clip-rule="evenodd" d="M24.5 48C37.7548 48 48.5 37.2548 48.5 24C48.5 10.7452 37.7548 0 24.5 0C11.2452 0 0.5 10.7452 0.5 24C0.5 37.2548 11.2452 48 24.5 48ZM24.9 15.3167C19.9025 15.3167 15.8167 19.4025 15.8167 24.4C15.8167 29.3975 19.9025 33.4833 24.9 33.4833C29.8976 33.4833 33.9833 29.3975 33.9833 24.4C33.9833 19.4025 29.8976 15.3167 24.9 15.3167ZM17.3167 24.4C17.3167 20.2309 20.7309 16.8167 24.9 16.8167C29.0691 16.8167 32.4833 20.2309 32.4833 24.4C32.4833 28.5691 29.0691 31.9833 24.9 31.9833C20.7309 31.9833 17.3167 28.5691 17.3167 24.4ZM24.9 20.3167C25.3142 20.3167 25.65 20.6525 25.65 21.0667V25.2333C25.65 25.6475 25.3142 25.9833 24.9 25.9833C24.4858 25.9833 24.15 25.6475 24.15 25.2333V21.0667C24.15 20.6525 24.4858 20.3167 24.9 20.3167ZM24.8954 26.9833C24.4812 26.9833 24.1454 27.3191 24.1454 27.7333C24.1454 28.1475 24.4812 28.4833 24.8954 28.4833H24.9029C25.3171 28.4833 25.6529 28.1475 25.6529 27.7333C25.6529 27.3191 25.3171 26.9833 24.9029 26.9833H24.8954Z" fill="#E31A1A"/>
</g>
<defs>
<clipPath id="clip0_23_3507">
<rect width="48" height="48" fill="white" transform="translate(0.5)"/>
</clipPath>
</defs>
</svg>
