<svg width="16" height="16" viewBox="0 0 16 16" fill="none" xmlns="http://www.w3.org/2000/svg">
<path d="M3.6 1.40002H12.4C13.1333 1.40002 13.7333 2.00002 13.7333 2.73336V4.20002C13.7333 4.73336 13.4 5.40002 13.0667 5.73336L10.2 8.26669C9.8 8.60002 9.53333 9.26669 9.53333 9.80002V12.6667C9.53333 13.0667 9.26666 13.6 8.93333 13.8L8 14.4C7.13333 14.9334 5.93333 14.3334 5.93333 13.2667V9.73336C5.93333 9.26669 5.66666 8.66669 5.4 8.33336L2.86666 5.66669C2.53333 5.33336 2.26666 4.73336 2.26666 4.33336V2.80002C2.26666 2.00002 2.86666 1.40002 3.6 1.40002Z" stroke="#585D76" stroke-width="1.5" stroke-miterlimit="10" stroke-linecap="round" stroke-linejoin="round"/>
</svg>
