<svg width="24" height="24" viewBox="0 0 24 24" fill="none" xmlns="http://www.w3.org/2000/svg">
<path d="M7.5 7.68757C7.5 7.68757 7.5675 6.14069 9.07219 4.90038C9.96562 4.16397 11.0386 3.95069 12 3.93756C12.878 3.92678 13.6627 4.07537 14.1319 4.30412C14.9339 4.69694 16.5 5.65319 16.5 7.68757C16.5 9.82835 15.1322 10.7987 13.5773 11.8679C12.0225 12.9371 11.625 13.9857 11.625 15.1876" stroke="#121416" stroke-width="1.5" stroke-miterlimit="10" stroke-linecap="round"/>
<path d="M11.625 20.2495C12.4534 20.2495 13.125 19.5779 13.125 18.7495C13.125 17.9211 12.4534 17.2495 11.625 17.2495C10.7966 17.2495 10.125 17.9211 10.125 18.7495C10.125 19.5779 10.7966 20.2495 11.625 20.2495Z" fill="#121416"/>
</svg>
