<svg width="48" height="48" viewBox="0 0 48 48" fill="none" xmlns="http://www.w3.org/2000/svg">
<path fill-rule="evenodd" clip-rule="evenodd" d="M24 48C37.2548 48 48 37.2548 48 24C48 10.7452 37.2548 0 24 0C10.7452 0 0 10.7452 0 24C0 37.2548 10.7452 48 24 48ZM24.4 15.3167C19.4025 15.3167 15.3167 19.4025 15.3167 24.4C15.3167 29.3975 19.4025 33.4833 24.4 33.4833C29.3976 33.4833 33.4833 29.3975 33.4833 24.4C33.4833 19.4025 29.3976 15.3167 24.4 15.3167ZM16.8167 24.4C16.8167 20.2309 20.2309 16.8167 24.4 16.8167C28.5691 16.8167 31.9833 20.2309 31.9833 24.4C31.9833 28.5691 28.5691 31.9833 24.4 31.9833C20.2309 31.9833 16.8167 28.5691 16.8167 24.4ZM24.3983 29.3167C23.9841 29.3167 23.6483 28.9809 23.6483 28.5667V24.4C23.6483 23.9858 23.9841 23.65 24.3983 23.65C24.8125 23.65 25.1483 23.9858 25.1483 24.4V28.5667C25.1483 28.9809 24.8125 29.3167 24.3983 29.3167ZM24.4029 22.9C24.9552 22.9 25.4029 22.4523 25.4029 21.9C25.4029 21.3477 24.9552 20.9 24.4029 20.9H24.3954C23.8431 20.9 23.3954 21.3477 23.3954 21.9C23.3954 22.4523 23.8431 22.9 24.3954 22.9H24.4029Z" fill="#4C6FFF"/>
</svg>
