<svg width="90" height="40" viewBox="0 0 90 40" fill="none" xmlns="http://www.w3.org/2000/svg">
<path fill-rule="evenodd" clip-rule="evenodd" d="M2 0C0.895431 0 0 0.895431 0 2V38C0 39.1046 0.895431 40 2 40H38C39.1046 40 40 39.1046 40 38V2C40 0.895431 39.1046 0 38 0H2ZM25.5556 20L17.7778 30.0222L12.2222 23.3333L4.44444 33.3333H35.5556L25.5556 20Z" fill="#A3AED0"/>
<path d="M53.262 23.152H56.398V25H50.868V15.172H53.262V23.152ZM62.1879 25.098C61.2639 25.098 60.4145 24.8833 59.6399 24.454C58.8745 24.0247 58.2632 23.4273 57.8059 22.662C57.3579 21.8873 57.1339 21.0193 57.1339 20.058C57.1339 19.0967 57.3579 18.2333 57.8059 17.468C58.2632 16.7027 58.8745 16.1053 59.6399 15.676C60.4145 15.2467 61.2639 15.032 62.1879 15.032C63.1119 15.032 63.9565 15.2467 64.7219 15.676C65.4965 16.1053 66.1032 16.7027 66.5419 17.468C66.9899 18.2333 67.2139 19.0967 67.2139 20.058C67.2139 21.0193 66.9899 21.8873 66.5419 22.662C66.0939 23.4273 65.4872 24.0247 64.7219 24.454C63.9565 24.8833 63.1119 25.098 62.1879 25.098ZM62.1879 22.914C62.9719 22.914 63.5972 22.6527 64.0639 22.13C64.5399 21.6073 64.7779 20.9167 64.7779 20.058C64.7779 19.19 64.5399 18.4993 64.0639 17.986C63.5972 17.4633 62.9719 17.202 62.1879 17.202C61.3945 17.202 60.7599 17.4587 60.2839 17.972C59.8172 18.4853 59.5839 19.1807 59.5839 20.058C59.5839 20.926 59.8172 21.6213 60.2839 22.144C60.7599 22.6573 61.3945 22.914 62.1879 22.914ZM75.0697 18.28C74.8924 17.9533 74.6357 17.706 74.2997 17.538C73.9731 17.3607 73.5857 17.272 73.1377 17.272C72.3631 17.272 71.7424 17.5287 71.2757 18.042C70.8091 18.546 70.5757 19.2227 70.5757 20.072C70.5757 20.9773 70.8184 21.6867 71.3037 22.2C71.7984 22.704 72.4751 22.956 73.3337 22.956C73.9217 22.956 74.4164 22.8067 74.8177 22.508C75.2284 22.2093 75.5271 21.78 75.7137 21.22H72.6757V19.456H77.8837V21.682C77.7064 22.2793 77.4031 22.8347 76.9737 23.348C76.5537 23.8613 76.0171 24.2767 75.3637 24.594C74.7104 24.9113 73.9731 25.07 73.1517 25.07C72.1811 25.07 71.3131 24.86 70.5477 24.44C69.7917 24.0107 69.1991 23.418 68.7697 22.662C68.3497 21.906 68.1397 21.0427 68.1397 20.072C68.1397 19.1013 68.3497 18.238 68.7697 17.482C69.1991 16.7167 69.7917 16.124 70.5477 15.704C71.3037 15.2747 72.1671 15.06 73.1377 15.06C74.3137 15.06 75.3031 15.3447 76.1057 15.914C76.9177 16.4833 77.4544 17.272 77.7157 18.28H75.0697ZM83.8578 25.098C82.9338 25.098 82.0845 24.8833 81.3098 24.454C80.5445 24.0247 79.9331 23.4273 79.4758 22.662C79.0278 21.8873 78.8038 21.0193 78.8038 20.058C78.8038 19.0967 79.0278 18.2333 79.4758 17.468C79.9331 16.7027 80.5445 16.1053 81.3098 15.676C82.0845 15.2467 82.9338 15.032 83.8578 15.032C84.7818 15.032 85.6265 15.2467 86.3918 15.676C87.1665 16.1053 87.7731 16.7027 88.2118 17.468C88.6598 18.2333 88.8838 19.0967 88.8838 20.058C88.8838 21.0193 88.6598 21.8873 88.2118 22.662C87.7638 23.4273 87.1571 24.0247 86.3918 24.454C85.6265 24.8833 84.7818 25.098 83.8578 25.098ZM83.8578 22.914C84.6418 22.914 85.2671 22.6527 85.7338 22.13C86.2098 21.6073 86.4478 20.9167 86.4478 20.058C86.4478 19.19 86.2098 18.4993 85.7338 17.986C85.2671 17.4633 84.6418 17.202 83.8578 17.202C83.0645 17.202 82.4298 17.4587 81.9538 17.972C81.4871 18.4853 81.2538 19.1807 81.2538 20.058C81.2538 20.926 81.4871 21.6213 81.9538 22.144C82.4298 22.6573 83.0645 22.914 83.8578 22.914Z" fill="#A3AED0"/>
</svg>
