<svg width="233" height="48" viewBox="0 0 233 48" fill="none" xmlns="http://www.w3.org/2000/svg">
<path fill-rule="evenodd" clip-rule="evenodd" d="M41.0222 13.3963L41.0005 13.408L40.9904 13.4135C38.0742 14.9941 35.1579 16.5747 32.2424 18.1554C31.3707 18.6282 30.5971 17.2932 31.4689 16.8205C34.394 15.2346 37.3198 13.6488 40.2457 12.063L40.2557 12.0575L40.2942 12.0367L40.3967 11.9811C43.2756 10.4207 46.1545 8.86035 49.0326 7.29997C49.9013 6.83028 50.6748 8.1621 49.8062 8.63488C46.8854 10.2184 43.9638 11.8019 41.0422 13.3854L41.0322 13.3908L41.0222 13.3963ZM45.9712 14.4973L45.9673 14.4995C43.2547 16.0027 40.5422 17.5058 37.8289 19.0082C36.7883 19.583 35.8582 17.9823 36.9019 17.4076C39.617 15.9042 42.3314 14.4 45.0457 12.8959L45.0489 12.8941C47.7619 11.3906 50.4749 9.88723 53.1887 8.38459C53.7934 8.04777 54.5731 8.46802 54.5731 9.18491V13.032V39.8569C54.5731 40.5182 53.775 41.0682 53.1887 40.6572L47.7557 36.8472C43.8431 34.1024 39.9305 31.3584 36.0179 28.6143L35.9891 28.5941C32.084 25.8554 28.179 23.1166 24.2739 20.3771L10.8417 10.9562V13.032V37.9052C14.6581 34.7567 18.4746 31.6102 22.291 28.4638C23.1996 27.713 24.5103 29.017 23.5925 29.774C21.4216 31.5638 19.2508 33.3543 17.0799 35.1448L17.0733 35.1502L17.065 35.1571L17.0617 35.1598L17.0468 35.172C14.8884 36.9523 12.73 38.7325 10.5716 40.512C9.97917 41.0002 9 40.719 9 39.8569V36.0098V9.18491C9 8.52364 9.79807 7.97052 10.3844 8.38459L15.8174 12.1946C19.731 14.9401 23.6446 17.6849 27.5582 20.4296C31.4718 23.1744 35.3855 25.9191 39.2992 28.6647L52.7314 38.0856V36.0098V10.7519C50.4777 12.0001 48.2244 13.2487 45.9712 14.4973ZM17.5701 23.1891C18.6107 23.1891 19.4793 22.4506 19.685 21.4648C21.2075 22.6576 22.1191 23.8009 22.1222 23.8071C20.6703 26.2019 17.567 26.959 15.1882 25.5005C12.8093 24.0389 12.0573 20.9148 13.5061 18.52C13.5061 18.52 14.6479 18.7518 16.1428 19.3852C15.6946 19.7838 15.4092 20.3648 15.4092 21.0137C15.4092 22.2157 16.3761 23.1891 17.5701 23.1891ZM43.0716 21.4648C43.2804 22.4506 44.146 23.1891 45.1865 23.1891C46.3806 23.1891 47.3475 22.2157 47.3475 21.0137C47.3475 20.3648 47.062 19.7838 46.6138 19.3852C48.1087 18.7518 49.2506 18.52 49.2506 18.52C50.6994 20.9148 49.9473 24.0389 47.5685 25.5005C45.1896 26.959 42.0863 26.2019 40.6344 23.8071C40.6375 23.8009 41.5491 22.6576 43.0716 21.4648ZM35.3264 28.1295L30.7188 24.898C33.0708 29.7814 28.8324 32.1535 28.8324 32.1535C28.8324 32.1535 32.6913 31.327 35.3264 28.1295Z" fill="black"/>
<path d="M69.1412 28.5732H70.7494C75.2137 28.5732 77.7099 26.061 77.7099 22.2561C77.7099 18.4268 75.2377 15.9146 70.7494 15.9146H66.5731V32.5H69.1412V28.5732ZM69.1412 26.2561V18.2317H70.6533C73.7736 18.2317 75.0697 19.7439 75.0697 22.2561C75.0697 24.7439 73.7976 26.2561 70.6533 26.2561H69.1412Z" fill="black"/>
<path d="M88.2982 27.7927C90.4343 26.7927 91.5624 24.8171 91.5624 22.2561C91.5624 18.4268 89.0902 15.9146 84.6019 15.9146L80.4256 15.9146V32.5H82.9938V28.5488L84.6019 28.5488C85.0099 28.5488 85.418 28.5244 85.778 28.4756L88.5622 32.5H91.6104L88.2982 27.7927ZM82.9938 26.3049V18.2317H84.5059C87.6261 18.2317 88.9222 19.7439 88.9222 22.2561C88.9222 24.7927 87.6501 26.3049 84.5059 26.3049L82.9938 26.3049Z" fill="black"/>
<path d="M99.6735 27.378V32.5L100.442 32.5C100.442 32.5 100.442 27.3537 100.442 27.378L106.634 15.9146H105.842L100.058 26.5976L94.2971 15.9146H93.481L99.6735 27.378Z" fill="black"/>
<path d="M108.019 29.1585H117.259L118.556 32.5H119.348L112.699 15.5H112.603L105.955 32.5H106.723L108.019 29.1585ZM116.995 28.4756H108.283L112.651 17.3049L116.995 28.4756Z" fill="black"/>
<path d="M121.118 32.5L132.902 32.5V31.8171H122.342L132.566 15.9878V15.9146L122.174 15.9146V16.5976L131.342 16.5976L121.118 32.4268V32.5Z" fill="black"/>
<path d="M136.297 32.5H137.066V15.9146H136.297V32.5Z" fill="black"/>
<path d="M141.921 32.5H150.585V31.8171L142.689 31.8171V15.9146H141.921V32.5Z" fill="black"/>
<path d="M153.877 32.5H154.645V15.9146H153.877V32.5Z" fill="black"/>
<path d="M159.5 32.5H160.22V17.622L166.965 26.622H167.037L173.853 17.622V32.5H174.573V15.5732H174.477L167.037 25.5L159.596 15.5732H159.5V32.5Z" fill="black"/>
</svg>
