<svg width="49" height="48" viewBox="0 0 49 48" fill="none" xmlns="http://www.w3.org/2000/svg">
<g clip-path="url(#clip0_23_3448)">
<path fill-rule="evenodd" clip-rule="evenodd" d="M48.5 24C48.5 37.2548 37.7548 48 24.5 48C11.2452 48 0.5 37.2548 0.5 24C0.5 10.7452 11.2452 0 24.5 0C37.7548 0 48.5 10.7452 48.5 24ZM26.3474 18.6606C26.0996 18.54 25.5753 18.4231 24.9098 18.4312C24.2034 18.4409 23.5014 18.5973 22.9373 19.0623L22.9372 19.0623C22.4286 19.4816 22.1697 19.9456 22.0364 20.2979C21.9694 20.4751 21.9343 20.6238 21.9164 20.7226C21.9074 20.7719 21.9029 20.8081 21.9007 20.8286L21.8993 20.843L21.899 20.8465C21.877 21.2567 21.5287 21.5735 21.1174 21.5555C20.7035 21.5375 20.3827 21.1874 20.4008 20.7736L21.1501 20.8062C20.4008 20.7736 20.4008 20.7732 20.4008 20.7729L20.4008 20.7721L20.4009 20.7706L20.4011 20.7671L20.4015 20.7587L20.403 20.7361C20.4043 20.7186 20.4063 20.6961 20.4092 20.6691C20.415 20.615 20.4246 20.5425 20.4405 20.4547C20.4723 20.2796 20.5297 20.0414 20.6334 19.7671C20.8418 19.2165 21.2379 18.5192 21.9832 17.9049L21.9832 17.9048C22.9079 17.1426 23.9941 16.9435 24.8898 16.9313L24.8909 16.9313C25.6878 16.9215 26.4709 17.052 27.0053 17.3126L27.0065 17.3132C27.7168 17.661 29.4001 18.6452 29.4001 20.8062C29.4001 23.0097 27.9268 24.0227 26.6669 24.889L26.6395 24.9078C26.0606 25.3059 25.7492 25.6643 25.5756 25.9869C25.4048 26.3045 25.3376 26.6429 25.3376 27.0563C25.3376 27.4705 25.0018 27.8063 24.5876 27.8063C24.1733 27.8063 23.8376 27.4705 23.8376 27.0563C23.8376 26.4681 23.9359 25.8688 24.2546 25.2763C24.5707 24.6888 25.0727 24.1648 25.7895 23.6719C27.1152 22.7603 27.9001 22.1547 27.9001 20.8062C27.9001 19.5771 26.9738 18.9675 26.3474 18.6606ZM25.8376 30.0246C25.8376 30.715 25.2779 31.2746 24.5876 31.2746C23.8972 31.2746 23.3376 30.715 23.3376 30.0246C23.3376 29.3343 23.8972 28.7746 24.5876 28.7746C25.2779 28.7746 25.8376 29.3343 25.8376 30.0246Z" fill="#FF9820"/>
</g>
<defs>
<clipPath id="clip0_23_3448">
<rect width="48" height="48" fill="white" transform="translate(0.5)"/>
</clipPath>
</defs>
</svg>
