<svg width="76" height="32" viewBox="0 0 76 32" fill="none" xmlns="http://www.w3.org/2000/svg">
<path d="M0 6.5C0 3.18629 2.68629 0.5 6 0.5H70C73.3137 0.5 76 3.18629 76 6.5V25.5C76 28.8137 73.3137 31.5 70 31.5H6C2.68629 31.5 0 28.8137 0 25.5V6.5Z" fill="#D7DBEA"/>
<path d="M27.65 15.92C28.0433 15.9933 28.3667 16.19 28.62 16.51C28.8733 16.83 29 17.1967 29 17.61C29 17.9833 28.9067 18.3133 28.72 18.6C28.54 18.88 28.2767 19.1 27.93 19.26C27.5833 19.42 27.1733 19.5 26.7 19.5H23.69V12.52H26.57C27.0433 12.52 27.45 12.5967 27.79 12.75C28.1367 12.9033 28.3967 13.1167 28.57 13.39C28.75 13.6633 28.84 13.9733 28.84 14.32C28.84 14.7267 28.73 15.0667 28.51 15.34C28.2967 15.6133 28.01 15.8067 27.65 15.92ZM25.09 15.4H26.37C26.7033 15.4 26.96 15.3267 27.14 15.18C27.32 15.0267 27.41 14.81 27.41 14.53C27.41 14.25 27.32 14.0333 27.14 13.88C26.96 13.7267 26.7033 13.65 26.37 13.65H25.09V15.4ZM26.5 18.36C26.84 18.36 27.1033 18.28 27.29 18.12C27.4833 17.96 27.58 17.7333 27.58 17.44C27.58 17.14 27.48 16.9067 27.28 16.74C27.08 16.5667 26.81 16.48 26.47 16.48H25.09V18.36H26.5ZM35.3458 13.96V19.5H33.9358V18.8C33.7558 19.04 33.5191 19.23 33.2258 19.37C32.9391 19.5033 32.6258 19.57 32.2858 19.57C31.8524 19.57 31.4691 19.48 31.1358 19.3C30.8024 19.1133 30.5391 18.8433 30.3458 18.49C30.1591 18.13 30.0658 17.7033 30.0658 17.21V13.96H31.4658V17.01C31.4658 17.45 31.5758 17.79 31.7958 18.03C32.0158 18.2633 32.3158 18.38 32.6958 18.38C33.0824 18.38 33.3858 18.2633 33.6058 18.03C33.8258 17.79 33.9358 17.45 33.9358 17.01V13.96H35.3458ZM38.3571 15.11V17.79C38.3571 17.9767 38.4004 18.1133 38.4871 18.2C38.5804 18.28 38.7338 18.32 38.9471 18.32H39.5971V19.5H38.7171C37.5371 19.5 36.9471 18.9267 36.9471 17.78V15.11H36.2871V13.96H36.9471V12.59H38.3571V13.96H39.5971V15.11H38.3571ZM43.0641 19.59C42.5307 19.59 42.0507 19.4733 41.6241 19.24C41.1974 19 40.8607 18.6633 40.6141 18.23C40.3741 17.7967 40.2541 17.2967 40.2541 16.73C40.2541 16.1633 40.3774 15.6633 40.6241 15.23C40.8774 14.7967 41.2207 14.4633 41.6541 14.23C42.0874 13.99 42.5707 13.87 43.1041 13.87C43.6374 13.87 44.1207 13.99 44.5541 14.23C44.9874 14.4633 45.3274 14.7967 45.5741 15.23C45.8274 15.6633 45.9541 16.1633 45.9541 16.73C45.9541 17.2967 45.8241 17.7967 45.5641 18.23C45.3107 18.6633 44.9641 19 44.5241 19.24C44.0907 19.4733 43.6041 19.59 43.0641 19.59ZM43.0641 18.37C43.3174 18.37 43.5541 18.31 43.7741 18.19C44.0007 18.0633 44.1807 17.8767 44.3141 17.63C44.4474 17.3833 44.5141 17.0833 44.5141 16.73C44.5141 16.2033 44.3741 15.8 44.0941 15.52C43.8207 15.2333 43.4841 15.09 43.0841 15.09C42.6841 15.09 42.3474 15.2333 42.0741 15.52C41.8074 15.8 41.6741 16.2033 41.6741 16.73C41.6741 17.2567 41.8041 17.6633 42.0641 17.95C42.3307 18.23 42.6641 18.37 43.0641 18.37ZM50.051 13.88C50.711 13.88 51.2443 14.09 51.651 14.51C52.0577 14.9233 52.261 15.5033 52.261 16.25V19.5H50.861V16.44C50.861 16 50.751 15.6633 50.531 15.43C50.311 15.19 50.011 15.07 49.631 15.07C49.2443 15.07 48.9377 15.19 48.711 15.43C48.491 15.6633 48.381 16 48.381 16.44V19.5H46.981V13.96H48.381V14.65C48.5677 14.41 48.8043 14.2233 49.091 14.09C49.3843 13.95 49.7043 13.88 50.051 13.88Z" fill="#A3AED0"/>
</svg>
