<svg width="49" height="48" viewBox="0 0 49 48" fill="none" xmlns="http://www.w3.org/2000/svg">
<g clip-path="url(#clip0_23_3473)">
<path fill-rule="evenodd" clip-rule="evenodd" d="M24.5 48C37.7548 48 48.5 37.2548 48.5 24C48.5 10.7452 37.7548 0 24.5 0C11.2452 0 0.5 10.7452 0.5 24C0.5 37.2548 11.2452 48 24.5 48ZM32.3053 20.5557C32.5982 20.2628 32.5982 19.788 32.3053 19.4951C32.0125 19.2022 31.5376 19.2022 31.2447 19.4951L23.025 27.7144L19.1803 23.87C18.8874 23.5772 18.4125 23.5772 18.1196 23.8701C17.8268 24.163 17.8268 24.6379 18.1197 24.9307L22.4947 29.3054C22.7876 29.5982 23.2624 29.5982 23.5553 29.3053L32.3053 20.5557Z" fill="#3EC976"/>
</g>
<defs>
<clipPath id="clip0_23_3473">
<rect width="48" height="48" fill="white" transform="translate(0.5)"/>
</clipPath>
</defs>
</svg>
