<svg width="21" height="20" viewBox="0 0 21 20" fill="none" xmlns="http://www.w3.org/2000/svg">
<g clip-path="url(#clip0_419_8622)">
<path d="M19.1211 0H2.07812C1.26172 0 0.601562 0.644531 0.601562 1.44141V18.5547C0.601562 19.3516 1.26172 20 2.07812 20H19.1211C19.9375 20 20.6016 19.3516 20.6016 18.5586V1.44141C20.6016 0.644531 19.9375 0 19.1211 0ZM6.53516 17.043H3.56641V7.49609H6.53516V17.043ZM5.05078 6.19531C4.09766 6.19531 3.32812 5.42578 3.32812 4.47656C3.32812 3.52734 4.09766 2.75781 5.05078 2.75781C6 2.75781 6.76953 3.52734 6.76953 4.47656C6.76953 5.42188 6 6.19531 5.05078 6.19531ZM17.6445 17.043H14.6797V12.4023C14.6797 11.2969 14.6602 9.87109 13.1367 9.87109C11.5937 9.87109 11.3594 11.0781 11.3594 12.3242V17.043H8.39844V7.49609H11.2422V8.80078H11.2812C11.6758 8.05078 12.6445 7.25781 14.0859 7.25781C17.0898 7.25781 17.6445 9.23438 17.6445 11.8047V17.043Z" fill="white" fill-opacity="0.4"/>
</g>
<defs>
<clipPath id="clip0_419_8622">
<rect width="20" height="20" fill="white" transform="translate(0.601562)"/>
</clipPath>
</defs>
</svg>
