<svg width="21" height="20" viewBox="0 0 21 20" fill="none" xmlns="http://www.w3.org/2000/svg">
<g clip-path="url(#clip0_419_8621)">
<path d="M10.6016 1.80078C13.2734 1.80078 13.5898 1.8125 14.6406 1.85937C15.6172 1.90234 16.1445 2.06641 16.4961 2.20313C16.9609 2.38281 17.2969 2.60156 17.6445 2.94922C17.9961 3.30078 18.2109 3.63281 18.3906 4.09766C18.5273 4.44922 18.6914 4.98047 18.7344 5.95312C18.7813 7.00781 18.793 7.32422 18.793 9.99219C18.793 12.6641 18.7813 12.9805 18.7344 14.0313C18.6914 15.0078 18.5273 15.5352 18.3906 15.8867C18.2109 16.3516 17.9922 16.6875 17.6445 17.0352C17.293 17.3867 16.9609 17.6016 16.4961 17.7813C16.1445 17.918 15.6133 18.082 14.6406 18.125C13.5859 18.1719 13.2695 18.1836 10.6016 18.1836C7.92969 18.1836 7.61328 18.1719 6.5625 18.125C5.58594 18.082 5.05859 17.918 4.70703 17.7813C4.24219 17.6016 3.90625 17.3828 3.55859 17.0352C3.20703 16.6836 2.99219 16.3516 2.8125 15.8867C2.67578 15.5352 2.51172 15.0039 2.46875 14.0313C2.42188 12.9766 2.41016 12.6602 2.41016 9.99219C2.41016 7.32031 2.42188 7.00391 2.46875 5.95312C2.51172 4.97656 2.67578 4.44922 2.8125 4.09766C2.99219 3.63281 3.21094 3.29688 3.55859 2.94922C3.91016 2.59766 4.24219 2.38281 4.70703 2.20313C5.05859 2.06641 5.58984 1.90234 6.5625 1.85937C7.61328 1.8125 7.92969 1.80078 10.6016 1.80078ZM10.6016 0C7.88672 0 7.54688 0.0117187 6.48047 0.0585938C5.41797 0.105469 4.6875 0.277344 4.05469 0.523438C3.39453 0.78125 2.83594 1.12109 2.28125 1.67969C1.72266 2.23438 1.38281 2.79297 1.125 3.44922C0.878906 4.08594 0.707031 4.8125 0.660156 5.875C0.613281 6.94531 0.601562 7.28516 0.601562 10C0.601562 12.7148 0.613281 13.0547 0.660156 14.1211C0.707031 15.1836 0.878906 15.9141 1.125 16.5469C1.38281 17.207 1.72266 17.7656 2.28125 18.3203C2.83594 18.875 3.39453 19.2188 4.05078 19.4727C4.6875 19.7188 5.41406 19.8906 6.47656 19.9375C7.54297 19.9844 7.88281 19.9961 10.5977 19.9961C13.3125 19.9961 13.6523 19.9844 14.7188 19.9375C15.7813 19.8906 16.5117 19.7188 17.1445 19.4727C17.8008 19.2188 18.3594 18.875 18.9141 18.3203C19.4688 17.7656 19.8125 17.207 20.0664 16.5508C20.3125 15.9141 20.4844 15.1875 20.5313 14.125C20.5781 13.0586 20.5898 12.7188 20.5898 10.0039C20.5898 7.28906 20.5781 6.94922 20.5313 5.88281C20.4844 4.82031 20.3125 4.08984 20.0664 3.45703C19.8203 2.79297 19.4805 2.23438 18.9219 1.67969C18.3672 1.125 17.8086 0.78125 17.1523 0.527344C16.5156 0.28125 15.7891 0.109375 14.7266 0.0625C13.6563 0.0117188 13.3164 0 10.6016 0Z" fill="white" fill-opacity="0.4"/>
<path d="M10.6016 4.86328C7.76562 4.86328 5.46484 7.16406 5.46484 10C5.46484 12.8359 7.76562 15.1367 10.6016 15.1367C13.4375 15.1367 15.7383 12.8359 15.7383 10C15.7383 7.16406 13.4375 4.86328 10.6016 4.86328ZM10.6016 13.332C8.76172 13.332 7.26953 11.8398 7.26953 10C7.26953 8.16016 8.76172 6.66797 10.6016 6.66797C12.4414 6.66797 13.9336 8.16016 13.9336 10C13.9336 11.8398 12.4414 13.332 10.6016 13.332Z" fill="white" fill-opacity="0.4"/>
<path d="M17.1406 4.66016C17.1406 5.32422 16.6016 5.85938 15.9414 5.85938C15.2773 5.85938 14.7422 5.32031 14.7422 4.66016C14.7422 3.99609 15.2813 3.46094 15.9414 3.46094C16.6016 3.46094 17.1406 4 17.1406 4.66016Z" fill="white" fill-opacity="0.4"/>
</g>
<defs>
<clipPath id="clip0_419_8621">
<rect width="20" height="20" fill="white" transform="translate(0.601562)"/>
</clipPath>
</defs>
</svg>
