<svg width="21" height="20" viewBox="0 0 21 20" fill="none" xmlns="http://www.w3.org/2000/svg">
<path fill-rule="evenodd" clip-rule="evenodd" d="M10.6092 2.08268C12.7254 2.08352 14.7113 2.90727 16.205 4.40185C17.6983 5.89685 18.5208 7.88352 18.52 9.99685C18.5183 14.3573 14.9692 17.9052 10.6092 17.9052H10.6058C9.2821 17.9048 7.98085 17.5727 6.82543 16.9423L2.63168 18.0423L3.75418 13.9443C3.06168 12.7452 2.69752 11.3843 2.69793 9.9906C2.70002 5.63018 6.24835 2.08268 10.6092 2.08268ZM10.6092 1.66602C6.01918 1.66602 2.28335 5.40018 2.28127 9.9906C2.28085 11.3935 2.63502 12.776 3.30668 13.9998L2.2296 17.9327C2.19043 18.0764 2.23043 18.2298 2.33543 18.3356C2.4146 18.4156 2.52168 18.4594 2.63168 18.4594C2.6671 18.4594 2.70252 18.4548 2.73752 18.4456L6.77377 17.3873C7.9521 17.9989 9.27293 18.3218 10.6058 18.3223C15.1992 18.3223 18.935 14.5877 18.9371 9.99727C18.9379 7.77268 18.0725 5.68102 16.5004 4.10768C14.9275 2.53393 12.8354 1.66685 10.6092 1.66602Z" fill="white" fill-opacity="0.4"/>
<path fill-rule="evenodd" clip-rule="evenodd" d="M2.48211 18.1896C2.52169 18.2296 2.57503 18.2513 2.63003 18.2513C2.64794 18.2513 2.66544 18.2492 2.68294 18.2442L6.79753 17.1654C7.96419 17.7858 9.27878 18.1138 10.6075 18.1142C15.0825 18.1142 18.725 14.4729 18.7267 9.9975C18.7275 7.82917 17.8838 5.79 16.3509 4.25542C14.8179 2.72125 12.7784 1.87583 10.6075 1.875C6.13211 1.875 2.49003 5.51583 2.48836 9.99167C2.48753 11.3875 2.84711 12.7625 3.52878 13.9733L2.42919 17.9883C2.40961 18.0596 2.43003 18.1367 2.48211 18.1896ZM10.6096 3.41919C12.3663 3.41961 14.0167 4.10419 15.2584 5.34669C16.5 6.58919 17.183 8.24086 17.1825 9.99711C17.1813 13.6217 14.2317 16.5704 10.6075 16.5704H10.605C9.42504 16.57 8.26754 16.2534 7.25837 15.6542L7.01795 15.5117L4.5292 16.1642L5.19379 13.7388L5.03712 13.49C4.37879 12.4429 4.03129 11.2338 4.0317 9.99169C4.03337 6.36752 6.98295 3.41919 10.6096 3.41919Z" fill="white" fill-opacity="0.4"/>
<path fill-rule="evenodd" clip-rule="evenodd" d="M8.62885 6.6861C8.48094 6.35694 8.3251 6.35027 8.18385 6.34444C8.06844 6.33944 7.93677 6.33985 7.8051 6.33985C7.67344 6.33985 7.45927 6.38944 7.27802 6.58735C7.09677 6.78527 6.58594 7.26319 6.58594 8.23569C6.58594 9.20819 7.29427 10.1482 7.39302 10.2799C7.49177 10.4115 8.76052 12.4711 10.7697 13.2636C12.4393 13.9219 12.7793 13.7911 13.1418 13.7582C13.5043 13.7253 14.3114 13.2803 14.4759 12.8186C14.6405 12.3569 14.6405 11.9615 14.5914 11.879C14.5418 11.7965 14.4101 11.7474 14.2126 11.6482C14.0151 11.549 13.043 11.0711 12.8618 11.0053C12.6805 10.9394 12.5489 10.9065 12.4168 11.1044C12.2851 11.3019 11.9064 11.7474 11.7909 11.879C11.6755 12.0111 11.5601 12.0278 11.3626 11.9286C11.1651 11.8294 10.5284 11.6211 9.77302 10.9478C9.18552 10.424 8.78885 9.77694 8.67344 9.57902C8.55802 9.38152 8.66094 9.27444 8.7601 9.17569C8.84885 9.08694 8.9576 8.94485 9.05677 8.82944C9.15552 8.71402 9.18844 8.63152 9.25427 8.49985C9.3201 8.36777 9.28719 8.25235 9.2376 8.1536C9.18885 8.05444 8.80469 7.07694 8.62885 6.6861Z" fill="white" fill-opacity="0.4"/>
</svg>
