<svg width="21" height="20" viewBox="0 0 21 20" fill="none" xmlns="http://www.w3.org/2000/svg">
<g clip-path="url(#clip0_419_8620)">
<path d="M20.6016 10C20.6016 4.47715 16.1244 0 10.6016 0C5.07871 0 0.601562 4.47715 0.601562 10C0.601562 14.9912 4.2584 19.1283 9.03906 19.8785V12.8906H6.5V10H9.03906V7.79688C9.03906 5.29063 10.532 3.90625 12.8162 3.90625C13.91 3.90625 15.0547 4.10156 15.0547 4.10156V6.5625H13.7937C12.5516 6.5625 12.1641 7.3334 12.1641 8.125V10H14.9375L14.4941 12.8906H12.1641V19.8785C16.9447 19.1283 20.6016 14.9912 20.6016 10Z" fill="white" fill-opacity="0.4"/>
</g>
<defs>
<clipPath id="clip0_419_8620">
<rect width="20" height="20" fill="white" transform="translate(0.601562)"/>
</clipPath>
</defs>
</svg>
