<svg width="16" height="16" viewBox="0 0 16 16" fill="none" xmlns="http://www.w3.org/2000/svg">
<path d="M8.56725 1.83392C8.25483 1.5215 7.7483 1.5215 7.43588 1.83392L1.83588 7.43392C1.52346 7.74634 1.52346 8.25288 1.83588 8.56529C2.1483 8.87771 2.65483 8.87771 2.96725 8.56529L3.20156 8.33098V13.5996C3.20156 14.0414 3.55973 14.3996 4.00156 14.3996H5.60156C6.04339 14.3996 6.40156 14.0414 6.40156 13.5996V11.9996C6.40156 11.5578 6.75973 11.1996 7.20156 11.1996H8.80156C9.24339 11.1996 9.60156 11.5578 9.60156 11.9996V13.5996C9.60156 14.0414 9.95973 14.3996 10.4016 14.3996H12.0016C12.4434 14.3996 12.8016 14.0414 12.8016 13.5996V8.33098L13.0359 8.56529C13.3483 8.87771 13.8548 8.87771 14.1672 8.56529C14.4797 8.25288 14.4797 7.74634 14.1672 7.43392L8.56725 1.83392Z" fill="#A1A1AA"/>
</svg>
