<svg width="32" height="32" viewBox="0 0 32 32" fill="none" xmlns="http://www.w3.org/2000/svg">
<path fill-rule="evenodd" clip-rule="evenodd" d="M4.80078 8.00039C4.80078 7.11673 5.51713 6.40039 6.40078 6.40039H25.6008C26.4844 6.40039 27.2008 7.11673 27.2008 8.00039C27.2008 8.88405 26.4844 9.60039 25.6008 9.60039H6.40078C5.51713 9.60039 4.80078 8.88405 4.80078 8.00039Z" fill="#A1A1AA"/>
<path fill-rule="evenodd" clip-rule="evenodd" d="M4.80078 16.0004C4.80078 15.1167 5.51713 14.4004 6.40078 14.4004H25.6008C26.4844 14.4004 27.2008 15.1167 27.2008 16.0004C27.2008 16.884 26.4844 17.6004 25.6008 17.6004H6.40078C5.51713 17.6004 4.80078 16.884 4.80078 16.0004Z" fill="#A1A1AA"/>
<path fill-rule="evenodd" clip-rule="evenodd" d="M14.4008 24.0004C14.4008 23.1167 15.1171 22.4004 16.0008 22.4004H25.6008C26.4844 22.4004 27.2008 23.1167 27.2008 24.0004C27.2008 24.884 26.4844 25.6004 25.6008 25.6004H16.0008C15.1171 25.6004 14.4008 24.884 14.4008 24.0004Z" fill="#A1A1AA"/>
</svg>
