<svg width="75" height="18" viewBox="0 0 75 18" fill="none" xmlns="http://www.w3.org/2000/svg">
<path d="M13.9891 11.0521C13.1744 10.2327 12.2077 9.54562 11.2152 8.99102C11.2637 9.11519 11.3186 9.24101 11.3817 9.36682C12.7411 12.0603 10.4441 13.3682 10.4441 13.3682C10.4441 13.3682 12.6021 12.898 13.9891 11.0521Z" fill="white"/>
<path d="M15.1821 6.32565C18.0416 4.71484 23.0301 1.90229 23.0301 1.90229C23.0301 1.90229 23.0301 10.6432 23.0301 15.4343C23.0301 15.805 23.0301 16.5464 23.0301 16.5464C23.0301 16.5464 18.3143 13.1815 15.9564 11.4991C11.8343 8.55728 7.71227 5.6171 3.59022 2.67526C2.63649 1.99484 1.68276 1.31443 0.729036 0.634016C0.420287 0.412178 0 0.708514 0 1.06279C0 5.85383 0 10.6432 0 15.4343C0 16.1213 0 16.8083 0 17.4954C0 17.9573 0.51566 18.1079 0.827642 17.8463C3.11336 15.9293 5.39907 14.0105 7.68478 12.0934C8.16811 11.6878 7.47787 10.9892 6.99939 11.3915C4.98956 13.0772 0.969893 16.4497 0.969893 16.4497C0.969893 16.4497 0.969893 7.56638 0.969893 3.1239C0.969893 2.75319 0.969893 2.01175 0.969893 2.01175C0.969893 2.01175 5.68573 5.37661 8.04365 7.05904C12.1657 10.0009 16.2877 12.9411 20.4098 15.8829C21.3635 16.5633 22.3172 17.2437 23.271 17.9241C23.5797 18.1443 24 17.8496 24 17.4954C24 12.7043 24 7.91494 24 3.1239C24 2.43686 24 1.74983 24 1.06279C24 0.678715 23.5894 0.453566 23.271 0.634016C20.4114 2.24483 17.5534 3.85729 14.6939 5.4681C14.1443 5.77602 14.6341 6.63358 15.1821 6.32565Z" fill="white"/>
<path d="M5.62701 7.64179C5.5187 8.16989 5.06124 8.56556 4.51325 8.56556C3.88443 8.56556 3.37524 8.04407 3.37524 7.40008C3.37524 7.05243 3.52557 6.74119 3.76158 6.52763C2.97435 6.18825 2.37302 6.06409 2.37302 6.06409C1.61004 7.3471 2.00608 9.02082 3.25885 9.80388C4.51163 10.5853 6.1459 10.1797 6.9105 8.89666C6.90888 8.89335 6.42879 8.28081 5.62701 7.64179Z" fill="white"/>
<path d="M17.943 7.64179C18.053 8.16989 18.5088 8.56556 19.0568 8.56556C19.6856 8.56556 20.1948 8.04407 20.1948 7.40008C20.1948 7.05243 20.0445 6.74119 19.8085 6.52763C20.5957 6.18825 21.197 6.06409 21.197 6.06409C21.96 7.3471 21.564 9.02082 20.3112 9.80388C19.0584 10.5853 17.4241 10.1797 16.6595 8.89666C16.6612 8.89335 17.1413 8.28081 17.943 7.64179Z" fill="white"/>
<path d="M12.2401 5.86873C15.3227 4.16853 18.407 2.46832 21.4896 0.768113C21.9471 0.51482 21.5397 -0.198704 21.0823 0.052933C17.9996 1.75314 14.9154 3.45335 11.8327 5.15355C11.3736 5.40685 11.781 6.12203 12.2401 5.86873Z" fill="white"/>
<path d="M30.97 5.9H28.55V13H29.68V10.63H30.97C32.5 10.63 33.46 9.67 33.46 8.27C33.46 6.86 32.5 5.9 30.97 5.9ZM30.86 9.58H29.68V6.95H30.86C31.73 6.95 32.31 7.36 32.31 8.27C32.31 9.18 31.73 9.58 30.86 9.58ZM39.5305 13L37.8305 10.39C38.7005 10.06 39.2205 9.3 39.2205 8.27C39.2205 6.86 38.2605 5.9 36.7605 5.9H34.3605V13H35.4905V10.57H36.7605H36.7705L38.3205 13H39.5305ZM35.4905 6.95H36.6305C37.5005 6.95 38.0705 7.36 38.0705 8.27C38.0705 9.18 37.5005 9.58 36.6305 9.58H35.4905V6.95ZM42.715 13H43.335V9.83L45.845 5.9H45.135L43.025 9.25L40.915 5.9H40.205L42.715 9.83V13ZM50.5885 13H51.2585L48.4085 5.9H47.8085L44.9585 13H45.6285L46.3485 11.19H49.8685L50.5885 13ZM46.5785 10.61L48.1085 6.73L49.6385 10.61H46.5785ZM51.7663 13H56.8563V12.41H52.7963L56.9263 5.9H51.9863V6.49H55.8963L51.7663 13ZM57.8878 13H58.5078V5.9H57.8878V13ZM60.3926 12.41V5.9H59.7726V13H63.6526V12.41H60.3926ZM64.714 13H65.334V5.9H64.714V13ZM66.5988 13H67.2188V7.17H67.2688L70.0188 13H70.4988L73.2488 7.17H73.2988V13H73.9188V5.9H73.2188L70.2588 12.19L67.2988 5.9H66.5988V13Z" fill="white"/>
</svg>
