<svg width="44" height="44" viewBox="0 0 44 44" fill="none" xmlns="http://www.w3.org/2000/svg">
<path fill-rule="evenodd" clip-rule="evenodd" d="M21.7071 26.7071C21.3166 27.0976 20.6834 27.0976 20.2929 26.7071L16.2929 22.7071C15.9024 22.3166 15.9024 21.6834 16.2929 21.2929L20.2929 17.2929C20.6834 16.9024 21.3166 16.9024 21.7071 17.2929C22.0976 17.6834 22.0976 18.3166 21.7071 18.7071L19.4142 21L27 21C27.5523 21 28 21.4477 28 22C28 22.5523 27.5523 23 27 23H19.4142L21.7071 25.2929C22.0976 25.6834 22.0976 26.3166 21.7071 26.7071Z" fill="#71717A"/>
<rect x="0.5" y="0.5" width="43" height="43" rx="21.5" stroke="#D4D4D8"/>
</svg>
