<svg width="21" height="20" viewBox="0 0 21 20" fill="none" xmlns="http://www.w3.org/2000/svg">
<g clip-path="url(#clip0_419_8623)">
<path d="M20.4023 6C20.4023 6 20.207 4.62109 19.6055 4.01563C18.8438 3.21875 17.9922 3.21484 17.6016 3.16797C14.8047 2.96484 10.6055 2.96484 10.6055 2.96484H10.5977C10.5977 2.96484 6.39844 2.96484 3.60156 3.16797C3.21094 3.21484 2.35938 3.21875 1.59766 4.01563C0.996094 4.62109 0.804687 6 0.804687 6C0.804687 6 0.601562 7.62109 0.601562 9.23828V10.7539C0.601562 12.3711 0.800781 13.9922 0.800781 13.9922C0.800781 13.9922 0.996094 15.3711 1.59375 15.9766C2.35547 16.7734 3.35547 16.7461 3.80078 16.832C5.40234 16.9844 10.6016 17.0313 10.6016 17.0313C10.6016 17.0313 14.8047 17.0234 17.6016 16.8242C17.9922 16.7773 18.8438 16.7734 19.6055 15.9766C20.207 15.3711 20.4023 13.9922 20.4023 13.9922C20.4023 13.9922 20.6016 12.375 20.6016 10.7539V9.23828C20.6016 7.62109 20.4023 6 20.4023 6ZM8.53516 12.5938V6.97266L13.9375 9.79297L8.53516 12.5938Z" fill="white" fill-opacity="0.4"/>
</g>
<defs>
<clipPath id="clip0_419_8623">
<rect width="20" height="20" fill="white" transform="translate(0.601562)"/>
</clipPath>
</defs>
</svg>
