<svg width="20" height="20" viewBox="0 0 20 20" fill="none" xmlns="http://www.w3.org/2000/svg">
<path d="M5.0013 9.16732V12.5006M15.0013 7.50065V10.834M14.168 3.33398C16.2086 3.33398 17.3122 3.64628 17.8614 3.88852C17.9345 3.92078 17.9711 3.93691 18.0766 4.03763C18.1399 4.098 18.2554 4.27515 18.2851 4.35739C18.3346 4.4946 18.3346 4.5696 18.3346 4.7196V13.6766C18.3346 14.4339 18.3346 14.8126 18.2211 15.0072C18.1056 15.2052 17.9941 15.2972 17.7779 15.3733C17.5654 15.4481 17.1363 15.3657 16.2781 15.2008C15.6775 15.0854 14.9651 15.0007 14.168 15.0007C11.668 15.0007 9.16797 16.6673 5.83464 16.6673C3.79405 16.6673 2.69036 16.355 2.1412 16.1128C2.06807 16.0805 2.0315 16.0644 1.92597 15.9637C1.86271 15.9033 1.74723 15.7262 1.71753 15.6439C1.66797 15.5067 1.66797 15.4317 1.66797 15.2817L1.66797 6.3247C1.66797 5.56739 1.66797 5.18874 1.78153 4.9941C1.89705 4.79612 2.00846 4.70408 2.22468 4.62799C2.43725 4.55319 2.86633 4.63564 3.72449 4.80052C4.32515 4.91593 5.03754 5.00065 5.83464 5.00065C8.33464 5.00065 10.8346 3.33398 14.168 3.33398ZM12.0846 10.0007C12.0846 11.1512 11.1519 12.084 10.0013 12.084C8.85071 12.084 7.91797 11.1512 7.91797 10.0007C7.91797 8.85006 8.85071 7.91732 10.0013 7.91732C11.1519 7.91732 12.0846 8.85006 12.0846 10.0007Z" stroke="white" stroke-width="2" stroke-linecap="round" stroke-linejoin="round"/>
</svg>
